<mxfile host="app.diagrams.net" modified="2023-10-12T18:19:06.813Z" agent="Mozilla/5.0 (Windows NT 10.0; Win64; x64) AppleWebKit/537.36 (KHTML, like Gecko) Chrome/117.0.0.0 Safari/537.36" etag="hiqXAp5h8wjgCPC_p_3j" version="22.0.4" type="github">
  <diagram name="Page-1" id="sDD176JVwd-YpwPL5J2j">
    <mxGraphModel dx="1434" dy="790" grid="1" gridSize="10" guides="1" tooltips="1" connect="1" arrows="1" fold="1" page="1" pageScale="1" pageWidth="850" pageHeight="1100" math="0" shadow="0">
      <root>
        <mxCell id="0" />
        <mxCell id="1" parent="0" />
        <mxCell id="xB0n_Ui65nKVtcq3Rsuy-26" style="edgeStyle=orthogonalEdgeStyle;rounded=0;orthogonalLoop=1;jettySize=auto;html=1;exitX=1;exitY=0.5;exitDx=0;exitDy=0;" edge="1" parent="1" source="xB0n_Ui65nKVtcq3Rsuy-1">
          <mxGeometry relative="1" as="geometry">
            <mxPoint x="200" y="370" as="targetPoint" />
          </mxGeometry>
        </mxCell>
        <mxCell id="xB0n_Ui65nKVtcq3Rsuy-1" value="User" style="ellipse;whiteSpace=wrap;html=1;aspect=fixed;" vertex="1" parent="1">
          <mxGeometry x="10" y="320" width="100" height="100" as="geometry" />
        </mxCell>
        <mxCell id="xB0n_Ui65nKVtcq3Rsuy-3" value="View Incomes" style="ellipse;whiteSpace=wrap;html=1;" vertex="1" parent="1">
          <mxGeometry x="240" y="140" width="120" height="80" as="geometry" />
        </mxCell>
        <mxCell id="xB0n_Ui65nKVtcq3Rsuy-4" value="View Income Data" style="ellipse;whiteSpace=wrap;html=1;" vertex="1" parent="1">
          <mxGeometry x="240" y="240" width="120" height="80" as="geometry" />
        </mxCell>
        <mxCell id="xB0n_Ui65nKVtcq3Rsuy-5" value="View Charts" style="ellipse;whiteSpace=wrap;html=1;" vertex="1" parent="1">
          <mxGeometry x="240" y="330" width="120" height="80" as="geometry" />
        </mxCell>
        <mxCell id="xB0n_Ui65nKVtcq3Rsuy-6" value="View Inflation Data" style="ellipse;whiteSpace=wrap;html=1;" vertex="1" parent="1">
          <mxGeometry x="240" y="430" width="120" height="80" as="geometry" />
        </mxCell>
        <mxCell id="xB0n_Ui65nKVtcq3Rsuy-7" value="View Interest Data" style="ellipse;whiteSpace=wrap;html=1;" vertex="1" parent="1">
          <mxGeometry x="240" y="530" width="120" height="80" as="geometry" />
        </mxCell>
        <mxCell id="xB0n_Ui65nKVtcq3Rsuy-8" value="Create/Modify User" style="ellipse;whiteSpace=wrap;html=1;" vertex="1" parent="1">
          <mxGeometry x="240" y="630" width="120" height="80" as="geometry" />
        </mxCell>
        <mxCell id="xB0n_Ui65nKVtcq3Rsuy-15" style="edgeStyle=orthogonalEdgeStyle;rounded=0;orthogonalLoop=1;jettySize=auto;html=1;exitX=0.5;exitY=0;exitDx=0;exitDy=0;entryX=1;entryY=0.5;entryDx=0;entryDy=0;" edge="1" parent="1" source="xB0n_Ui65nKVtcq3Rsuy-9" target="xB0n_Ui65nKVtcq3Rsuy-5">
          <mxGeometry relative="1" as="geometry" />
        </mxCell>
        <mxCell id="xB0n_Ui65nKVtcq3Rsuy-16" style="edgeStyle=orthogonalEdgeStyle;rounded=0;orthogonalLoop=1;jettySize=auto;html=1;exitX=0;exitY=0.5;exitDx=0;exitDy=0;entryX=1;entryY=0.5;entryDx=0;entryDy=0;" edge="1" parent="1" source="xB0n_Ui65nKVtcq3Rsuy-9" target="xB0n_Ui65nKVtcq3Rsuy-6">
          <mxGeometry relative="1" as="geometry" />
        </mxCell>
        <mxCell id="xB0n_Ui65nKVtcq3Rsuy-17" style="edgeStyle=orthogonalEdgeStyle;rounded=0;orthogonalLoop=1;jettySize=auto;html=1;exitX=0.5;exitY=1;exitDx=0;exitDy=0;entryX=1;entryY=0.5;entryDx=0;entryDy=0;" edge="1" parent="1" source="xB0n_Ui65nKVtcq3Rsuy-9" target="xB0n_Ui65nKVtcq3Rsuy-7">
          <mxGeometry relative="1" as="geometry" />
        </mxCell>
        <mxCell id="xB0n_Ui65nKVtcq3Rsuy-18" style="edgeStyle=orthogonalEdgeStyle;rounded=0;orthogonalLoop=1;jettySize=auto;html=1;exitX=0.5;exitY=0;exitDx=0;exitDy=0;entryX=1;entryY=0.5;entryDx=0;entryDy=0;" edge="1" parent="1" source="xB0n_Ui65nKVtcq3Rsuy-9" target="xB0n_Ui65nKVtcq3Rsuy-4">
          <mxGeometry relative="1" as="geometry" />
        </mxCell>
        <mxCell id="xB0n_Ui65nKVtcq3Rsuy-9" value="Filters" style="ellipse;whiteSpace=wrap;html=1;" vertex="1" parent="1">
          <mxGeometry x="510" y="430" width="120" height="80" as="geometry" />
        </mxCell>
        <mxCell id="xB0n_Ui65nKVtcq3Rsuy-19" value="" style="endArrow=none;dashed=1;html=1;dashPattern=1 3;strokeWidth=2;rounded=0;entryX=0.5;entryY=1;entryDx=0;entryDy=0;" edge="1" parent="1" target="xB0n_Ui65nKVtcq3Rsuy-20">
          <mxGeometry width="50" height="50" relative="1" as="geometry">
            <mxPoint x="710" y="670" as="sourcePoint" />
            <mxPoint x="720" y="670" as="targetPoint" />
          </mxGeometry>
        </mxCell>
        <mxCell id="xB0n_Ui65nKVtcq3Rsuy-20" value="Log In" style="ellipse;whiteSpace=wrap;html=1;" vertex="1" parent="1">
          <mxGeometry x="660" y="40" width="120" height="80" as="geometry" />
        </mxCell>
        <mxCell id="xB0n_Ui65nKVtcq3Rsuy-21" value="" style="endArrow=none;dashed=1;html=1;dashPattern=1 3;strokeWidth=2;rounded=0;exitX=1;exitY=0.5;exitDx=0;exitDy=0;" edge="1" parent="1" source="xB0n_Ui65nKVtcq3Rsuy-8">
          <mxGeometry width="50" height="50" relative="1" as="geometry">
            <mxPoint x="370" y="680" as="sourcePoint" />
            <mxPoint x="710" y="670" as="targetPoint" />
          </mxGeometry>
        </mxCell>
        <mxCell id="xB0n_Ui65nKVtcq3Rsuy-22" value="" style="endArrow=none;html=1;rounded=0;exitX=1;exitY=0.5;exitDx=0;exitDy=0;" edge="1" parent="1" source="xB0n_Ui65nKVtcq3Rsuy-9">
          <mxGeometry width="50" height="50" relative="1" as="geometry">
            <mxPoint x="650" y="470" as="sourcePoint" />
            <mxPoint x="710" y="470" as="targetPoint" />
          </mxGeometry>
        </mxCell>
        <mxCell id="xB0n_Ui65nKVtcq3Rsuy-24" value="" style="endArrow=none;html=1;rounded=0;" edge="1" parent="1">
          <mxGeometry width="50" height="50" relative="1" as="geometry">
            <mxPoint x="360" y="180" as="sourcePoint" />
            <mxPoint x="720" y="180" as="targetPoint" />
          </mxGeometry>
        </mxCell>
        <mxCell id="xB0n_Ui65nKVtcq3Rsuy-30" value="" style="endArrow=none;html=1;rounded=0;" edge="1" parent="1">
          <mxGeometry width="50" height="50" relative="1" as="geometry">
            <mxPoint x="200" y="670" as="sourcePoint" />
            <mxPoint x="200" y="180" as="targetPoint" />
            <Array as="points">
              <mxPoint x="200" y="320" />
            </Array>
          </mxGeometry>
        </mxCell>
        <mxCell id="xB0n_Ui65nKVtcq3Rsuy-32" value="" style="endArrow=classic;html=1;rounded=0;" edge="1" parent="1" target="xB0n_Ui65nKVtcq3Rsuy-3">
          <mxGeometry width="50" height="50" relative="1" as="geometry">
            <mxPoint x="200" y="180" as="sourcePoint" />
            <mxPoint x="250" y="110" as="targetPoint" />
          </mxGeometry>
        </mxCell>
        <mxCell id="xB0n_Ui65nKVtcq3Rsuy-33" value="" style="endArrow=classic;html=1;rounded=0;" edge="1" parent="1">
          <mxGeometry width="50" height="50" relative="1" as="geometry">
            <mxPoint x="200" y="279.5" as="sourcePoint" />
            <mxPoint x="240" y="279.5" as="targetPoint" />
          </mxGeometry>
        </mxCell>
        <mxCell id="xB0n_Ui65nKVtcq3Rsuy-34" value="" style="endArrow=classic;html=1;rounded=0;" edge="1" parent="1">
          <mxGeometry width="50" height="50" relative="1" as="geometry">
            <mxPoint x="200" y="469.5" as="sourcePoint" />
            <mxPoint x="240" y="469.5" as="targetPoint" />
          </mxGeometry>
        </mxCell>
        <mxCell id="xB0n_Ui65nKVtcq3Rsuy-35" value="" style="endArrow=classic;html=1;rounded=0;" edge="1" parent="1">
          <mxGeometry width="50" height="50" relative="1" as="geometry">
            <mxPoint x="200" y="369.5" as="sourcePoint" />
            <mxPoint x="240" y="369.5" as="targetPoint" />
          </mxGeometry>
        </mxCell>
        <mxCell id="xB0n_Ui65nKVtcq3Rsuy-36" value="" style="endArrow=classic;html=1;rounded=0;" edge="1" parent="1">
          <mxGeometry width="50" height="50" relative="1" as="geometry">
            <mxPoint x="200" y="669.5" as="sourcePoint" />
            <mxPoint x="240" y="669.5" as="targetPoint" />
            <Array as="points">
              <mxPoint x="220" y="669.5" />
            </Array>
          </mxGeometry>
        </mxCell>
        <mxCell id="xB0n_Ui65nKVtcq3Rsuy-37" value="" style="endArrow=classic;html=1;rounded=0;" edge="1" parent="1">
          <mxGeometry width="50" height="50" relative="1" as="geometry">
            <mxPoint x="200" y="569.5" as="sourcePoint" />
            <mxPoint x="240" y="569.5" as="targetPoint" />
          </mxGeometry>
        </mxCell>
      </root>
    </mxGraphModel>
  </diagram>
</mxfile>
